HIERARCHY
ROOT root
{
	OFFSET 0.000000 0.000000 0.000000
	CHANNELS 6 Xposition Yposition Zposition Zrotation Yrotation Xrotation
	JOINT lhip
	{
		OFFSET 0.058581 -0.082280 -0.017664
		CHANNELS 3 Zrotation Yrotation Xrotation
		JOINT lknee
		{
			OFFSET 0.043451 -0.386469 0.008037
			CHANNELS 3 Zrotation Yrotation Xrotation
			JOINT lankle
			{
				OFFSET -0.014790 -0.426874 -0.037428
				CHANNELS 3 Zrotation Yrotation Xrotation
				JOINT ltoe
				{
					OFFSET 0.041054 -0.060286 0.122042
					CHANNELS 3 Zrotation Yrotation Xrotation
					End Site
					{
						OFFSET 0.000000 0.000000 0.000000
					}
				}
			}
		}
	}
	JOINT rhip
	{
		OFFSET -0.060310 -0.090513 -0.013543
		CHANNELS 3 Zrotation Yrotation Xrotation
		JOINT rknee
		{
			OFFSET -0.043257 -0.383688 -0.004843
			CHANNELS 3 Zrotation Yrotation Xrotation
			JOINT rankle
			{
				OFFSET 0.019056 -0.420046 -0.034562
				CHANNELS 3 Zrotation Yrotation Xrotation
				JOINT rtoe
				{
					OFFSET -0.034840 -0.062106 0.130323
					CHANNELS 3 Zrotation Yrotation Xrotation
					End Site
					{
						OFFSET 0.000000 0.000000 0.000000
					}
				}
			}
		}
	}
	JOINT lowerback
	{
		OFFSET 0.004439 0.124404 -0.038385
		CHANNELS 3 Zrotation Yrotation Xrotation
		JOINT upperback
		{
			OFFSET 0.004488 0.137956 0.026820
			CHANNELS 3 Zrotation Yrotation Xrotation
			JOINT chest
			{
				OFFSET -0.002265 0.056032 0.002855
				CHANNELS 3 Zrotation Yrotation Xrotation
				JOINT lowerneck
				{
					OFFSET -0.013390 0.211636 -0.033468
					CHANNELS 3 Zrotation Yrotation Xrotation
					JOINT upperneck
					{
						OFFSET 0.010113 0.088937 0.050410
						CHANNELS 3 Zrotation Yrotation Xrotation
						End Site
						{
							OFFSET 0.000000 0.000000 0.000000
						}
					}
				}
				JOINT lclavicle
				{
					OFFSET 0.071702 0.114000 -0.018898
					CHANNELS 3 Zrotation Yrotation Xrotation
					JOINT lshoulder
					{
						OFFSET 0.122921 0.045205 -0.019046
						CHANNELS 3 Zrotation Yrotation Xrotation
						JOINT lelbow
						{
							OFFSET 0.255332 -0.015649 -0.022946
							CHANNELS 3 Zrotation Yrotation Xrotation
							JOINT lwrist
							{
								OFFSET 0.265709 0.012698 -0.007375
								CHANNELS 3 Zrotation Yrotation Xrotation
								End Site
								{
									OFFSET 0.000000 0.000000 0.000000
								}
							}
						}
					}
				}
				JOINT rclavicle
				{
					OFFSET -0.082954 0.112472 -0.023707
					CHANNELS 3 Zrotation Yrotation Xrotation
					JOINT rshoulder
					{
						OFFSET -0.113228 0.046853 -0.008472
						CHANNELS 3 Zrotation Yrotation Xrotation
						JOINT relbow
						{
							OFFSET -0.260127 -0.014369 -0.031269
							CHANNELS 3 Zrotation Yrotation Xrotation
							JOINT rwrist
							{
								OFFSET -0.269108 0.006794 -0.006027
								CHANNELS 3 Zrotation Yrotation Xrotation
								End Site
								{
									OFFSET 0.000000 0.000000 0.000000
								}
							}
						}
					}
				}
			}
		}
	}
}
MOTION
Frames: 11
Frame Time: 0.033333
1.038700 0.708206 0.991424 -81.406868 -2.847525 95.558783 1.217323 -4.503072 -15.992139 -11.900320 -3.335809 41.458240 2.573240 5.101302 -0.603806 0.000000 -0.000000 0.000000 -2.505711 -5.258524 -13.574205 2.161948 -0.687487 42.169275 6.623677 -7.746413 3.999993 0.000000 -0.000000 0.000000 -1.637742 5.744069 11.296247 -0.017945 -1.866302 -2.517415 0.682842 2.929477 -1.011842 -2.464015 -0.020138 -10.756423 0.908859 -0.410297 -7.018918 -0.843842 -25.101988 -10.917631 -32.530849 -27.461608 11.609515 -8.148437 -33.131986 18.160656 -8.733844 -9.361373 -0.054405 -2.356743 24.974540 -6.382766 12.489249 26.685540 -4.733928 -12.844760 40.054184 -3.231794 11.417544 0.646096 1.093968 
0.998717 0.703865 1.051381 -76.098122 -3.269366 92.803649 0.394392 -7.380557 -10.240731 -8.098836 -4.003539 32.980640 -3.948665 3.554285 19.316359 0.000000 -0.000000 0.000000 -2.051991 -3.935119 -7.734712 -1.207632 -1.498088 35.096612 11.356657 -7.040211 28.420307 0.000000 -0.000000 0.000000 -2.539004 5.677592 8.152536 -0.194450 -2.312343 -1.047881 1.449499 2.345411 -2.241870 -3.955090 -2.553411 -2.170006 2.893294 4.372015 -7.105676 -7.600567 -24.450426 -6.211830 -40.765827 -28.076208 15.959180 -3.987075 -28.024805 7.914047 -12.150687 -6.486330 6.270526 1.527357 22.241394 -2.793481 15.232430 21.749711 2.423566 -6.421077 42.231770 2.547391 6.838145 0.846695 6.040855 
0.967159 0.700639 1.104163 -68.888626 -2.995089 91.422974 0.263019 -8.541691 -8.289119 -5.429804 -3.920570 24.904765 -6.117188 5.020328 29.691464 0.000000 -0.000000 0.000000 -0.489061 -2.028517 -6.993427 -0.180250 -0.092342 32.160530 12.454517 -5.536637 38.877680 0.000000 -0.000000 0.000000 -2.051082 4.540014 6.699635 -0.826997 -2.638348 0.199081 1.183044 0.938887 -3.435524 -5.660597 -3.977943 1.128856 3.484345 7.988889 -8.702113 -16.743094 -23.412548 -1.350372 -43.951551 -26.326823 15.359343 -1.060499 -23.633477 5.266481 -15.148322 -3.834189 10.011790 6.065899 18.642493 1.237494 16.981129 15.561914 5.460980 -0.752857 44.344524 11.235933 6.763377 1.799417 6.194710 
0.943168 0.697905 1.143765 -61.121342 -2.954558 91.434436 -0.646220 -7.778273 -9.269434 -4.312114 -1.368981 16.699375 -7.992265 5.377759 30.516434 0.000000 -0.000000 0.000000 -0.375450 -0.833873 -10.390422 -0.564180 -2.694225 30.498648 12.663920 -8.069414 37.059623 0.000000 -0.000000 0.000000 -1.338145 3.003435 6.613087 -1.467177 -2.721265 0.496752 0.503567 -0.373372 -4.418743 -5.801048 -3.658152 -0.575257 2.869302 9.996263 -7.424047 -23.891082 -22.588601 1.179283 -46.087984 -24.382679 15.907310 0.498119 -16.924182 7.659416 -17.480485 -1.638762 18.633678 9.875988 14.912899 3.724976 19.063254 8.170994 8.867514 3.354779 43.678692 18.285072 7.913152 1.402582 8.500167 
0.920486 0.696588 1.169861 -53.317960 -2.363955 91.023847 -2.443569 -5.976388 -9.799196 -3.220994 2.281385 9.058893 -8.959231 7.351065 36.105270 0.000000 -0.000000 0.000000 0.269109 0.801331 -11.920524 -2.135417 -1.537778 24.104905 11.812901 -7.746914 36.872931 0.000000 -0.000000 0.000000 0.216204 1.219614 8.559954 -2.117994 -3.217301 -0.324005 0.309479 -1.003717 -4.657959 -6.965892 -2.573014 -3.291915 3.334618 12.934364 -5.939746 -27.351419 -23.304374 2.705376 -48.455396 -21.154711 16.874070 0.227299 -11.951072 10.084599 -17.192904 0.575659 26.542461 11.113364 12.510797 5.190345 23.377351 0.205786 11.595712 7.505882 39.764686 25.033590 8.381744 0.117429 12.528898 
0.897489 0.697015 1.182659 -45.545587 -1.443560 90.854435 -4.898771 -4.068307 -9.861747 -0.938231 5.375175 3.204808 -7.769388 9.270563 38.539189 0.000000 -0.000000 0.000000 0.549272 1.649022 -12.920033 -4.038364 0.740196 16.392401 10.865004 -8.705405 37.807927 0.000000 -0.000000 0.000000 1.604051 -0.473243 10.186702 -2.341176 -3.755262 -2.086832 0.666212 -1.867175 -3.680467 -8.039478 -2.700950 -5.628310 4.125459 16.439334 -4.937801 -28.640539 -23.023814 5.188311 -51.270282 -19.321513 17.730632 -1.085953 -9.774299 14.198723 -15.880069 -0.095783 29.353842 11.137925 10.637983 7.159866 28.798513 -5.843985 14.399596 10.406818 33.670154 30.681114 10.404253 -0.639780 16.682741 
0.869309 0.696478 1.185969 -37.951044 -0.080174 90.811169 -5.948272 -2.640815 -9.461262 0.013077 6.878138 0.791724 -6.860032 10.109642 39.169755 0.000000 -0.000000 0.000000 0.708235 1.228977 -13.765992 -4.211946 2.717906 11.274959 9.856294 -8.951636 37.125471 0.000000 -0.000000 0.000000 1.332892 -0.678724 8.955851 -1.367356 -3.867134 -1.664035 1.838640 -2.615662 -3.246501 -8.545916 -2.955007 -4.784916 5.153990 18.210109 -4.997509 -29.026957 -21.457314 7.295188 -54.071528 -18.277856 17.685786 -3.703351 -9.413971 18.585527 -15.831084 1.364415 29.674470 12.163346 8.036109 9.833868 33.485697 -12.101274 15.912789 12.740001 29.363795 36.846211 11.936529 -1.892129 21.767695 
0.839092 0.695425 1.179497 -30.429415 1.676710 90.349605 -5.154854 -2.820501 -9.186644 -0.568095 5.588735 2.482335 -6.397808 9.853566 39.337129 0.000000 -0.000000 0.000000 0.838120 1.090336 -13.612170 -3.642556 4.411165 8.092565 9.611198 -8.647638 37.029497 0.000000 -0.000000 0.000000 1.332772 -0.285568 7.630022 -0.431706 -3.977215 -1.372624 2.375259 -3.645983 -2.830548 -7.932239 -3.034871 -3.414962 5.783943 18.016870 -4.327270 -29.313431 -17.911653 7.824102 -54.690121 -16.772938 16.761542 -5.966378 -10.828010 22.332520 -17.321657 3.217751 27.705439 14.043986 4.221754 11.404115 38.204255 -17.348922 17.026957 13.798509 26.902987 40.713111 13.133461 -2.480631 22.498692 
0.806803 0.693874 1.161055 -22.329955 4.120469 89.792779 -3.101831 -2.219113 -8.959362 -1.097695 5.002998 5.109314 -7.128719 9.466768 37.490152 0.000000 -0.000000 0.000000 1.994947 1.430669 -12.210795 -4.155489 5.054547 6.521988 7.494978 -8.070862 34.837021 0.000000 -0.000000 0.000000 1.334121 -0.373713 6.417369 0.901655 -5.022432 -1.033512 2.821247 -4.611461 -2.054659 -7.586101 -2.672992 -2.180247 6.628250 16.765585 -4.534690 -28.232466 -16.154466 8.588134 -55.393611 -16.329926 14.690347 -6.003209 -10.232734 22.325165 -18.487541 3.964141 25.396821 14.678126 0.780953 12.131594 44.458018 -21.388054 16.531120 13.827997 26.346518 44.359328 15.404987 -2.650517 21.367877 
0.775169 0.691870 1.131961 -14.866434 5.988189 89.154796 -2.047902 -1.692832 -8.277556 -1.345929 4.519014 7.213953 -6.455138 9.474312 36.957025 0.000000 -0.000000 0.000000 2.666729 2.115282 -10.481449 -4.183159 7.129790 6.678088 7.179177 -7.135815 34.457837 0.000000 -0.000000 0.000000 0.096542 -1.111897 6.285592 2.496984 -6.237391 -1.145817 3.409212 -4.917719 -1.407656 -7.390769 -2.544773 -1.821332 7.293433 15.228890 -4.271541 -26.929898 -15.144361 8.982666 -55.816292 -15.866564 13.294658 -5.098360 -9.268238 23.817106 -18.644089 5.132121 26.766192 15.412265 -1.342071 12.537656 50.018036 -24.217674 16.131609 14.637703 26.218563 46.364693 16.571710 -1.967748 19.895131 
0.745087 0.690146 1.093042 -7.440578 7.852799 89.101117 -1.336821 -2.423534 -8.567086 -2.091057 2.603912 11.579364 -3.882764 9.358867 33.169898 0.000000 -0.000000 0.000000 3.513556 3.896997 -10.075320 -3.475106 8.475340 10.777486 4.761060 -8.630102 33.301911 0.000000 -0.000000 0.000000 -1.110140 -2.501290 6.316585 4.084784 -7.535223 -1.321197 3.973131 -5.676807 -0.762062 -6.540573 -3.445803 -1.522230 7.225188 15.019646 -5.113863 -26.697674 -14.074333 10.073791 -55.275141 -15.198204 12.145778 -4.349372 -9.179421 23.857984 -17.652852 4.552752 25.103051 16.705159 -1.928786 12.923117 53.272222 -24.634662 17.764858 15.209693 26.138171 47.415805 15.888666 -0.646606 18.197012 
